PathFileType	4	(X/Y/Z)	pose_F01_0-95.trc
DataRate	CameraRate	NumFrames	NumMarkers	Units	OrigDataRate	OrigDataStartFrame	OrigNumFrames
30	30	6	21	m	30	0	95
Frame#	Time	CHip			RHip			RKnee			RAnkle			RBigToe			RSmallToe			RHeel			LHip			LKnee			LAnkle			LBigToe			LSmallToe			LHeel			Neck			Nose			RShoulder			RElbow			RWrist			LShoulder			LElbow			LWrist			
		X1	Y1	Z1	X2	Y2	Z2	X3	Y3	Z3	X4	Y4	Z4	X5	Y5	Z5	X6	Y6	Z6	X7	Y7	Z7	X8	Y8	Z8	X9	Y9	Z9	X10	Y10	Z10	X11	Y11	Z11	X12	Y12	Z12	X13	Y13	Z13	X14	Y14	Z14	X15	Y15	Z15	X16	Y16	Z16	X17	Y17	Z17	X18	Y18	Z18	X19	Y19	Z19	X20	Y20	Z20	X21	Y21	Z21	
0	0.0	-0.20911999474214538	1.8443774866954048	-0.4063010810928381	-0.20956487180528166	1.8424924597174475	-0.32332078168565664	-0.21801424067487507	1.7184613701798048	-0.3287017903305228	-0.20466106271743453	1.6076322585327871	-0.3311779151391277	-0.2126472907110913	1.5704566808915228	-0.4250081109274011	-0.2037326485663693	1.5766733873679302	-0.4077824586540383	-0.1936259757401356	1.5997208971214527	-0.3146676327356893	-0.19023072545193317	1.8372139801925895	-0.4767932414713389	-0.18115188880137736	1.7203220337045515	-0.43854400867734894	-0.18211761817509242	1.59739993773374	-0.3725802920162347	-0.22152535512867494	1.5711816104092378	-0.40169613566253226	-0.17603815218316485	1.5504740364971326	-0.3977493434948629	-0.18431159134381847	1.5948472586026063	-0.391166956996091	-2.061473503774978	1.9129013914742496	1.76291317712304	-0.20425804822220997	2.0447482597443987	-0.3808724646353253	-2.212470427830819	1.9174759631260896	2.091240196496149	-0.20525129307353288	1.8937508074281886	-0.2916527668727396	-0.2316553204203655	1.8339767087412229	-0.29998250933180554	-0.18526968719877002	1.9777763852347465	-0.5120910269023554	-0.19134645711875972	1.9001629708104257	-0.5369054921694518	-0.1813235940223901	1.8066531682977383	-0.5684012225782047
1	0.03333333333333333	-0.20800161638935388	1.8428922732291062	-0.4026453238653483	-0.20943487601215352	1.8410334724835518	-0.32295902669780574	-0.21691133911551314	1.7179750101665596	-0.325351848949032	-0.20466106271743453	1.6076322585327871	-0.3311779151391277	-0.2126472907110913	1.5704566808915228	-0.4250081109274011	-0.2037326485663693	1.5766733873679302	-0.4077824586540383	-0.1936259757401356	1.5997208971214527	-0.3146676327356893	-0.19088017471307692	1.8367703688096	-0.47127877279818176	-0.1829837720504503	1.720113588164367	-0.4362594259930627	-0.18371223286952115	1.598074016422987	-0.3750845171243741	-0.22152535512867494	1.5711816104092378	-0.40169613566253226	-0.18151493157938145	1.5537665863618264	-0.3961345747081018	-0.18478967448920258	1.5951127125190427	-0.39051379454847646	-2.0530294776574767	1.9124826519249405	1.7453768433668078	-0.20527322291404812	2.044945135615657	-0.38384175973147167	-2.1959078053208336	1.9171121015379953	2.0553555361760782	-0.20513097804411437	1.8948099529831643	-0.2916185314495965	-0.22919051143702618	1.8334383387410256	-0.2931056072680501	-0.1851509287235051	1.9789011182188518	-0.5121339002034642	-0.19066536344947785	1.9003860074550716	-0.5338536321645291	-0.1834206976806274	1.8102561051710504	-0.5578894440122338
2	0.06666666666666667	-0.2068832380365624	1.8414070597628076	-0.3989895666378585	-0.20930488021902538	1.839574485249656	-0.32259727170995484	-0.2158084375561512	1.7174886501533144	-0.3220019075675412	-0.20466106271743453	1.6076322585327871	-0.3311779151391277	-0.2126472907110913	1.5704566808915228	-0.4250081109274011	-0.2037326485663693	1.5766733873679302	-0.4077824586540383	-0.1936259757401356	1.5997208971214527	-0.3146676327356893	-0.19152962397422066	1.8363267574266104	-0.4657643041250246	-0.18481565529952323	1.7199051426241825	-0.4339748433087765	-0.18530684756394988	1.598748095112234	-0.37758874223251343	-0.22152535512867494	1.5711816104092378	-0.40169613566253226	-0.18699171097559805	1.5570591362265203	-0.3945198059213407	-0.1852677576345867	1.5953781664354791	-0.3898606321008619	-2.0445854515399753	1.9120639123756313	1.7278405096105756	-0.20628839760588627	2.0451420114869157	-0.386811054827618	-2.1793451828108483	1.916748239949901	2.0194708758560074	-0.20501066301469587	1.8958690985381401	-0.29158429602645336	-0.22672570245368687	1.8328999687408283	-0.2862287052042946	-0.1850321702482402	1.9800258512029572	-0.5121767735045729	-0.18998426978019597	1.9006090440997174	-0.5308017721596063	-0.18551780133886472	1.8138590420443625	-0.547377665446263
3	0.1	-0.2057648596837709	1.839921846296509	-0.3953338094103687	-0.20917488442589724	1.8381154980157604	-0.32223551672210393	-0.21470553599678927	1.7170022901400692	-0.3186519661860504	-0.20466106271743453	1.6076322585327871	-0.3311779151391277	-0.2126472907110913	1.5704566808915228	-0.4250081109274011	-0.2037326485663693	1.5766733873679302	-0.4077824586540383	-0.1936259757401356	1.5997208971214527	-0.3146676327356893	-0.1921790732353644	1.835883146043621	-0.4602498354518675	-0.18664753854859617	1.719696697083998	-0.4316902606244903	-0.18690146225837861	1.5994221738014809	-0.3800929673406528	-0.22152535512867494	1.5711816104092378	-0.40169613566253226	-0.19246849037181465	1.560351686091214	-0.39290503713457964	-0.1857458407799708	1.5956436203519155	-0.3892074696532474	-2.0364990053722885	1.9119372231408314	1.7109647021328547	-0.20730357229772442	2.045338887358174	-0.38978034992376437	-2.181425992164322	1.9170659923278686	2.0215192368456445	-0.20489034798527736	1.896928244093116	-0.29155006060331023	-0.22426089347034756	1.832361598740631	-0.27935180314053915	-0.1849134117729753	1.9811505841870625	-0.5122196468056817	-0.1893031761109141	1.9008320807443633	-0.5277499121546836	-0.18761490499710204	1.8174619789176747	-0.5368658868802921
4	0.13333333333333333	-0.2046464813309794	1.8384366328302104	-0.39167805218287893	-0.2090448886327691	1.8366565107818646	-0.321873761734253	-0.21360263443742733	1.716515930126824	-0.3153020248045596	-0.20466106271743453	1.6076322585327871	-0.3311779151391277	-0.2126472907110913	1.5704566808915228	-0.4250081109274011	-0.2037326485663693	1.5766733873679302	-0.4077824586540383	-0.1936259757401356	1.5997208971214527	-0.3146676327356893	-0.19282852249650814	1.8354395346606314	-0.45473536677871035	-0.1884794217976691	1.7194882515438135	-0.42940567794020407	-0.18849607695280735	1.6000962524907278	-0.38259719244879214	-0.22152535512867494	1.5711816104092378	-0.40169613566253226	-0.19794526976803126	1.563644235955908	-0.39129026834781855	-0.18622392392535492	1.595909074268352	-0.38855430720563283	-2.0270813289150897	1.9104614398097395	1.6925707115186275	-0.20831874698956257	2.0455357632294326	-0.3927496450199107	-2.1728239516960857	1.9166074299470621	2.0035706619681757	-0.20477003295585886	1.8979873896480917	-0.2915158251801671	-0.22179608448700824	1.8318232287404337	-0.2724749010767837	-0.1847946532977104	1.9822753171711678	-0.5122625201067904	-0.18862208244163223	1.9010551173890091	-0.5246980521497608	-0.18971200865533935	1.8210649157909868	-0.5263541083143213
5	0.16666666666666666	-0.2035281029781879	1.8369514193639118	-0.38802229495538915	-0.20891489283964096	1.835197523547969	-0.3215120067464021	-0.2124997328780654	1.7160295701135788	-0.3119520834230688	-0.20466106271743453	1.6076322585327871	-0.3311779151391277	-0.2126472907110913	1.5704566808915228	-0.4250081109274011	-0.2037326485663693	1.5766733873679302	-0.4077824586540383	-0.1936259757401356	1.5997208971214527	-0.3146676327356893	-0.19347797175765188	1.8349959232776418	-0.4492208981055532	-0.19031130504674204	1.719279806003629	-0.42712109525591785	-0.19009069164723608	1.6007703311799748	-0.3851014175569315	-0.22152535512867494	1.5711816104092378	-0.40169613566253226	-0.20342204916424786	1.5669367858206018	-0.38967549956105746	-0.18670200707073903	1.5961745281847883	-0.3879011447580183	-2.0176636524578915	1.9089856564786478	1.6741767209044005	-0.20933392168140072	2.045732639100691	-0.39571894011605707	-2.1737910848784288	1.9166030132596548	2.004516367140801	-0.20464971792644035	1.8990465352030674	-0.291481589757024	-0.21933127550366893	1.8312848587402364	-0.2655979990130282	-0.18467589482244548	1.983400050155273	-0.5123053934078992	-0.18794098877235035	1.901278154033655	-0.5216461921448381	-0.19180911231357667	1.824667852664299	-0.5158423297483504
